<svg width="1052" height="275" viewBox="0 0 1052 275" fill="none" xmlns="http://www.w3.org/2000/svg">
<path d="M3.74441 1.02171C3.20412 0.0583047 1.98512 -0.2847 1.02171 0.255593C0.0583047 0.795885 -0.2847 2.01488 0.255593 2.97829L3.74441 1.02171ZM1042.25 274.853C1043.27 275.269 1044.44 274.776 1044.85 273.753L1051.63 257.078C1052.05 256.055 1051.56 254.888 1050.53 254.472C1049.51 254.056 1048.34 254.549 1047.93 255.572L1041.9 270.394L1027.08 264.369C1026.06 263.953 1024.89 264.445 1024.47 265.468C1024.06 266.491 1024.55 267.658 1025.57 268.074L1042.25 274.853ZM11.0545 20.9724C11.6511 21.902 12.8883 22.172 13.8179 21.5754C14.7475 20.9788 15.0174 19.7415 14.4208 18.8119L11.0545 20.9724ZM38.5325 51.6572C37.8226 50.811 36.5611 50.7005 35.7148 51.4104C34.8686 52.1203 34.7581 53.3818 35.468 54.228L38.5325 51.6572ZM64.0762 83.968C64.895 84.7094 66.1598 84.6466 66.9012 83.8278C67.6426 83.0091 67.5798 81.7443 66.761 81.0029L64.0762 83.968ZM98.7753 106.177C97.862 105.556 96.618 105.793 95.9967 106.706C95.3754 107.619 95.612 108.863 96.5253 109.484L98.7753 106.177ZM132.149 130.399C133.136 130.895 134.338 130.498 134.835 129.511C135.331 128.525 134.934 127.322 133.947 126.826L132.149 130.399ZM171.453 142.959C170.415 142.581 169.268 143.116 168.89 144.154C168.512 145.192 169.048 146.34 170.086 146.717L171.453 142.959ZM209.527 158.803C210.598 159.075 211.686 158.428 211.958 157.357C212.23 156.286 211.582 155.198 210.511 154.926L209.527 158.803ZM250.551 163.275C249.461 163.093 248.431 163.829 248.249 164.919C248.068 166.008 248.804 167.039 249.893 167.221L250.551 163.275ZM290.768 172.564C291.867 172.671 292.845 171.867 292.953 170.767C293.06 169.668 292.255 168.69 291.156 168.583L290.768 172.564ZM332.05 171.395C330.947 171.348 330.014 172.205 329.967 173.309C329.921 174.412 330.778 175.345 331.881 175.391L332.05 171.395ZM373.069 176.196C374.174 176.195 375.068 175.298 375.067 174.193C375.065 173.089 374.168 172.195 373.064 172.196L373.069 176.196ZM414.101 171.408C412.998 171.447 412.135 172.373 412.174 173.477C412.213 174.581 413.14 175.444 414.244 175.405L414.101 171.408ZM455.362 173.386C456.464 173.318 457.303 172.369 457.235 171.267C457.168 170.164 456.219 169.326 455.117 169.393L455.362 173.386ZM496.094 166.474C494.993 166.562 494.172 167.526 494.26 168.627C494.348 169.728 495.311 170.55 496.413 170.462L496.094 166.474ZM537.403 166.926C538.503 166.825 539.313 165.852 539.212 164.752C539.111 163.652 538.138 162.842 537.038 162.942L537.403 166.926ZM577.966 159.073C576.866 159.179 576.061 160.157 576.167 161.256C576.273 162.355 577.25 163.161 578.35 163.055L577.966 159.073ZM619.276 159.123C620.376 159.019 621.183 158.043 621.079 156.944C620.975 155.844 620 155.037 618.9 155.141L619.276 159.123ZM659.867 151.433C658.766 151.527 657.95 152.495 658.043 153.596C658.137 154.696 659.105 155.512 660.206 155.419L659.867 151.433ZM701.156 152.262C702.258 152.188 703.092 151.234 703.017 150.132C702.943 149.03 701.989 148.197 700.887 148.271L701.156 152.262ZM741.97 146.032C740.866 146.076 740.007 147.006 740.05 148.11C740.094 149.214 741.024 150.073 742.128 150.029L741.97 146.032ZM783.086 149.185C784.191 149.186 785.087 148.292 785.088 147.187C785.089 146.082 784.194 145.186 783.09 145.185L783.086 149.185ZM824.301 146.341C823.198 146.277 822.252 147.118 822.187 148.221C822.123 149.324 822.964 150.27 824.067 150.334L824.301 146.341ZM864.903 154.302C865.996 154.456 867.008 153.694 867.162 152.601C867.316 151.507 866.554 150.495 865.46 150.341L864.903 154.302ZM905.991 158.286C904.922 158.009 903.83 158.651 903.553 159.721C903.276 160.79 903.918 161.881 904.987 162.159L905.991 158.286ZM943.444 175.236C944.457 175.677 945.635 175.212 946.076 174.199C946.516 173.186 946.052 172.008 945.038 171.568L943.444 175.236ZM981.263 191.757C980.36 191.121 979.113 191.337 978.476 192.239C977.839 193.142 978.055 194.39 978.958 195.026L981.263 191.757ZM1009.16 222.07C1009.89 222.898 1011.15 222.978 1011.98 222.247C1012.81 221.517 1012.89 220.253 1012.16 219.425L1009.16 222.07ZM1035.74 253.282C1035.21 252.312 1033.99 251.954 1033.02 252.483C1032.05 253.011 1031.7 254.226 1032.22 255.196L1035.74 253.282ZM0.255593 2.97829C3.73521 9.18289 7.33621 15.1789 11.0545 20.9724L14.4208 18.8119C10.7461 13.0862 7.18588 7.1583 3.74441 1.02171L0.255593 2.97829ZM35.468 54.228C44.5118 65.0083 54.062 74.9003 64.0762 83.968L66.761 81.0029C56.8824 72.0579 47.459 62.2977 38.5325 51.6572L35.468 54.228ZM96.5253 109.484C107.96 117.264 119.851 124.211 132.149 130.399L133.947 126.826C121.799 120.712 110.059 113.854 98.7753 106.177L96.5253 109.484ZM170.086 146.717C182.905 151.381 196.068 155.386 209.527 158.803L210.511 154.926C197.172 151.54 184.137 147.573 171.453 142.959L170.086 146.717ZM249.893 167.221C263.3 169.456 276.939 171.216 290.768 172.564L291.156 168.583C277.408 167.243 263.86 165.494 250.551 163.275L249.893 167.221ZM331.881 175.391C345.482 175.966 359.223 176.216 373.069 176.196L373.064 172.196C359.269 172.216 345.586 171.967 332.05 171.395L331.881 175.391ZM414.244 175.405C427.894 174.92 441.611 174.23 455.362 173.386L455.117 169.393C441.395 170.236 427.712 170.924 414.101 171.408L414.244 175.405ZM496.413 170.462C510.085 169.369 523.759 168.174 537.403 166.926L537.038 162.942C523.405 164.19 509.747 165.384 496.094 166.474L496.413 170.462ZM578.35 163.055C592.068 161.732 605.719 160.404 619.276 159.123L618.9 155.141C605.338 156.423 591.68 157.751 577.966 159.073L578.35 163.055ZM660.206 155.419C674.01 154.243 687.672 153.172 701.156 152.262L700.887 148.271C687.374 149.183 673.687 150.256 659.867 151.433L660.206 155.419ZM742.128 150.029C756.041 149.477 769.708 149.174 783.086 149.185L783.09 145.185C769.649 145.174 755.927 145.479 741.97 146.032L742.128 150.029ZM824.067 150.334C838.111 151.157 851.742 152.45 864.903 154.302L865.46 150.341C852.178 148.472 838.437 147.169 824.301 146.341L824.067 150.334ZM904.987 162.159C918.503 165.662 931.348 169.98 943.444 175.236L945.038 171.568C932.728 166.218 919.683 161.835 905.991 158.286L904.987 162.159ZM978.958 195.026C989.976 202.797 1000.07 211.761 1009.16 222.07L1012.16 219.425C1002.86 208.874 992.527 199.702 981.263 191.757L978.958 195.026ZM1032.22 255.196C1035.43 261.078 1038.41 267.267 1041.16 273.778L1044.84 272.222C1042.05 265.593 1039.01 259.284 1035.74 253.282L1032.22 255.196Z" fill="#B5B5B5"/>
</svg>
