<svg width="175" height="224" viewBox="0 0 175 224" fill="none" xmlns="http://www.w3.org/2000/svg">
<mask id="mask0_142_1390" style="mask-type:luminance" maskUnits="userSpaceOnUse" x="0" y="0" width="175" height="224">
<path d="M0 0.106445H175V223.338H0V0.106445Z" fill="white"/>
</mask>
<g mask="url(#mask0_142_1390)">
<path d="M174.293 118.417C174.516 139.599 174.814 160.781 174.922 181.963C174.96 189.451 174.392 196.939 174.352 204.428C174.296 215.169 166.277 221.715 156.83 221.926C137.482 222.36 118.126 222.822 98.7767 222.723C76.3566 222.609 53.9371 221.996 31.5224 221.382C26.0982 221.133 20.6947 220.527 15.3451 219.567C9.19171 218.577 3.14901 210.963 2.82018 204.034C2.49459 197.133 2.23082 190.225 2.14373 183.316C1.74001 151.176 1.37687 119.036 1.05456 86.8952C0.855953 68.0139 0.779536 49.131 0.499532 30.2507C0.418136 24.8991 0.0445029 19.5303 2.13717 14.5054C3.25933 11.5769 4.78226 8.83072 6.6594 6.35061C8.97023 3.50168 12.38 2.42166 16.0256 2.31804C23.5409 2.10408 31.0691 2.05366 38.5665 1.54065C65.0248 -0.26794 91.4789 1.14512 117.936 1.34898C123.563 1.39194 127.843 3.29342 131.993 7.37644C140.466 15.7093 149.559 23.3629 158.344 31.3579C161.688 34.4015 164.791 37.7335 168.186 40.7088C171.317 43.4558 172.534 46.9116 172.651 50.9803C172.858 58.1818 173.188 65.3854 173.286 72.5836C173.492 87.8607 173.583 103.141 173.722 118.42L174.293 118.417ZM115.632 12.1083C113.172 11.9086 111.116 11.6278 109.055 11.5916C91.5147 11.2873 73.9737 11.011 56.4319 10.7616C48.5024 10.6479 40.572 10.5974 32.6416 10.5469C28.6118 10.5208 24.5736 10.3896 20.5544 10.607C14.9487 10.9094 13.2167 12.5859 12.2082 18.2863C11.2032 23.6688 10.9658 29.1749 11.5034 34.6288C11.835 37.7791 12.002 40.9456 12.0032 44.1146C12.0878 94.9779 12.1515 145.841 12.1943 196.704C12.1681 197.713 12.2057 198.722 12.3068 199.724C13.1492 206.28 16.4903 210.656 23.6841 210.95C50.5518 212.045 77.418 212.057 104.293 211.586C117.797 211.348 131.303 211.23 144.808 211.071C148.145 211.032 151.49 211.161 154.819 210.997C160.637 210.709 163.552 207.694 163.5 201.806C163.396 190.288 163.132 178.772 162.911 167.256C162.797 161.351 162.678 155.445 162.483 149.541C162.026 135.577 161.299 121.617 161.101 107.648C160.874 91.9462 161.106 76.2373 161.123 60.532C161.123 59.5683 161.005 58.6038 160.939 57.6173C160.467 57.5036 159.986 57.4266 159.502 57.3878C151.011 57.5647 142.522 57.8408 134.031 57.893C131.388 57.9133 128.754 57.599 126.184 56.9559C120.947 55.6199 119.299 53.525 118.745 47.9653C118.246 42.9532 117.923 37.9218 117.488 32.9021C116.902 26.1757 116.287 19.4486 115.632 12.1107V12.1083ZM154.569 45.9721L154.761 45.064L127.184 19.1656L126.55 19.5869C127.903 28.7831 129.256 37.9793 130.651 47.4594L154.569 45.9721Z" fill="url(#paint0_linear_142_1390)"/>
<path d="M27.0332 50.0789C27.0332 45.91 26.9252 41.7388 27.0603 37.5741C27.2393 32.0818 28.7906 30.4724 34.1352 30.1153C41.6121 29.6157 49.0965 29.2182 56.5775 28.7801C59.9431 28.5839 62.3882 30.2964 63.1427 34.0474C63.8281 37.8576 64.3083 41.704 64.581 45.5693C65.0429 49.71 65.2874 53.8741 65.3135 58.0422C65.1984 60.8869 64.7172 63.7027 63.8825 66.4158C63.0506 69.3481 60.7083 70.7712 57.848 70.8613C50.4899 71.0946 43.1237 71.3919 35.7679 71.2529C28.8885 71.1224 27.5788 69.5802 27.0895 62.5766C26.939 60.4268 26.8291 58.2711 26.7722 56.1163C26.7192 54.1055 26.7607 52.0923 26.7607 50.0806L27.0332 50.0789ZM36.5567 60.4879C39.7702 61.5763 47.913 61.2721 52.9986 59.8922V38.1105C48.6031 37.0996 38.1414 37.1838 35.0166 38.2857L36.5567 60.4879Z" fill="url(#paint1_linear_142_1390)"/>
<path d="M85.0956 100.997C101.641 101.343 118.187 101.656 134.731 102.082C136.528 102.153 138.298 102.568 139.95 103.305C140.736 103.638 141.401 104.22 141.851 104.966C142.3 105.713 142.511 106.587 142.454 107.464C142.469 108.346 142.206 109.206 141.705 109.918C141.204 110.631 140.492 111.155 139.678 111.411C137.415 112.039 135.082 112.354 132.739 112.347C119.807 112.046 106.883 111.443 93.9513 111.218C82.1319 111.012 70.306 111.181 58.4834 111.134C51.2514 111.104 44.0178 111.044 36.7891 110.848C34.8537 110.702 32.9372 110.357 31.0678 109.818C30.3731 109.68 29.7509 109.284 29.318 108.705C28.8851 108.127 28.6711 107.404 28.7163 106.673C28.6524 105.944 28.8438 105.215 29.2552 104.619C29.6667 104.023 30.271 103.6 30.9586 103.426C32.2866 103.024 33.658 102.795 35.0407 102.744C51.7224 102.279 68.4055 101.843 85.0899 101.437C85.0915 101.29 85.0931 101.144 85.0956 100.997Z" fill="url(#paint2_linear_142_1390)"/>
<path d="M28.1871 127.29C29.1728 124.085 31.5416 123.692 33.946 123.526C39.0852 123.174 44.2285 122.735 49.3751 122.657C76.9491 122.238 104.524 121.881 132.101 121.587C134.044 121.534 135.986 121.736 137.88 122.189C138.888 122.399 139.797 122.955 140.462 123.768C141.126 124.581 141.505 125.602 141.536 126.666C141.57 127.73 141.252 128.774 140.638 129.628C140.026 130.482 139.151 131.096 138.158 131.371C136.439 131.921 134.658 132.229 132.86 132.284C126.313 132.325 119.767 132.225 113.221 132.115C89.1285 131.697 65.0356 131.254 40.9426 130.784C37.8904 130.722 34.8381 130.307 31.7997 129.929C29.9153 129.688 29.9273 129.58 28.1871 127.29Z" fill="url(#paint3_linear_142_1390)"/>
<path d="M92.829 93.6421C80.9925 93.6421 69.1545 93.5225 57.3205 93.6951C51.9003 93.7735 46.4946 94.4591 41.073 94.8054C38.435 94.9738 35.7823 95.1095 33.1459 95.0581C30.5974 95.005 29.1689 93.9166 29.0078 92.2783C28.845 90.5791 29.9846 89.2626 32.5681 88.9037C39.6006 87.9281 46.6355 86.7834 53.7063 86.3352C78.7337 84.749 103.797 84.397 128.868 84.6008C131.094 84.5729 133.321 84.7086 135.53 85.0076C138.004 85.3968 139.289 86.9451 139.251 88.929C139.212 90.9127 137.901 92.3894 135.419 92.6901C132.378 93.0658 129.32 93.2672 126.258 93.2941C115.114 93.3624 103.971 93.3211 92.8282 93.3211L92.829 93.6421Z" fill="url(#paint4_linear_142_1390)"/>
<path d="M123.038 174.936C119.283 174.936 115.527 174.994 111.773 174.921C108.291 174.853 106.574 173.598 106.547 171.305C106.52 169.013 108.19 167.799 111.679 167.561C118.617 167.093 125.554 166.591 132.497 166.192C134.296 166.079 136.103 166.164 137.886 166.445C138.732 166.532 139.521 166.927 140.11 167.561C140.7 168.197 141.053 169.027 141.105 169.905C141.313 171.982 140.579 173.739 138.71 174.49C137.028 175.152 135.257 175.533 133.462 175.619C129.994 175.787 126.513 175.669 123.038 175.669C123.038 175.426 123.038 175.181 123.038 174.936Z" fill="url(#paint5_linear_142_1390)"/>
</g>
<defs>
<linearGradient id="paint0_linear_142_1390" x1="87.6728" y1="0.631348" x2="87.6728" y2="222.737" gradientUnits="userSpaceOnUse">
<stop stop-color="#858585"/>
<stop offset="1" stop-color="white" stop-opacity="0"/>
</linearGradient>
<linearGradient id="paint1_linear_142_1390" x1="46.0294" y1="28.765" x2="46.0294" y2="71.2885" gradientUnits="userSpaceOnUse">
<stop stop-color="#858585"/>
<stop offset="1" stop-color="white" stop-opacity="0"/>
</linearGradient>
<linearGradient id="paint2_linear_142_1390" x1="85.5836" y1="100.997" x2="85.5836" y2="112.347" gradientUnits="userSpaceOnUse">
<stop stop-color="#858585"/>
<stop offset="1" stop-color="white" stop-opacity="0"/>
</linearGradient>
<linearGradient id="paint3_linear_142_1390" x1="84.8628" y1="121.579" x2="84.8628" y2="132.294" gradientUnits="userSpaceOnUse">
<stop stop-color="#858585"/>
<stop offset="1" stop-color="white" stop-opacity="0"/>
</linearGradient>
<linearGradient id="paint4_linear_142_1390" x1="84.122" y1="84.5483" x2="84.122" y2="95.0691" gradientUnits="userSpaceOnUse">
<stop stop-color="#858585"/>
<stop offset="1" stop-color="white" stop-opacity="0"/>
</linearGradient>
<linearGradient id="paint5_linear_142_1390" x1="123.843" y1="166.144" x2="123.843" y2="175.709" gradientUnits="userSpaceOnUse">
<stop stop-color="#858585"/>
<stop offset="1" stop-color="white" stop-opacity="0"/>
</linearGradient>
</defs>
</svg>
